PathFileType	4	(X/Y/Z)	c:/Users/goper/Files/vsCode/490R/osim_files/C03/C03_SSW_01.trc
DataRate	CameraRate	NumFrames	NumMarkers	Units                	OrigDataRate	OrigDataStartFrame	OrigNumFrames
250.00	250.00	4	36	mm	250.0	1462	2339
                Frame#	Time	LPSIS			LASIS			LTH1			LTH2			LTH3			LTH4			LLFE			LMFE			LSH1			LSH2			LSH3			LSH4			LLMAL			LMMAL			LCAL			LMTP5			LTOE			LMTP1			RPSIS			RASIS			RTH1			RTH2			RTH3			RTH4			RLFE			RMFE			RSH1			RSH2			RSH3			RSH4			RLMAL			RMMAL			RCAL			RMTP1			RTOE			RMTP5		
		X1	Y1	Z1	X2	Y2	Z2	X3	Y3	Z3	X4	Y4	Z4	X5	Y5	Z5	X6	Y6	Z6	X7	Y7	Z7	X8	Y8	Z8	X9	Y9	Z9	X10	Y10	Z10	X11	Y11	Z11	X12	Y12	Z12	X13	Y13	Z13	X14	Y14	Z14	X15	Y15	Z15	X16	Y16	Z16	X17	Y17	Z17	X18	Y18	Z18	X19	Y19	Z19	X20	Y20	Z20	X21	Y21	Z21	X22	Y22	Z22	X23	Y23	Z23	X24	Y24	Z24	X25	Y25	Z25	X26	Y26	Z26	X27	Y27	Z27	X28	Y28	Z28	X29	Y29	Z29	X30	Y30	Z30	X31	Y31	Z31	X32	Y32	Z32	X33	Y33	Z33	X34	Y34	Z34	X35	Y35	Z35	X36	Y36	Z36

1462	5.84400	-649.71362	1039.47803	277.95840	-827.54822	986.54443	310.66660	-850.64172	642.57306	355.03726	-881.69720	589.75946	345.53149	-919.49323	675.52423	360.95572	-941.37360	618.41687	350.36414	-920.55225	526.26660	337.65332	-939.55389	518.03296	227.48305	-780.80060	401.40433	326.93033	-762.99280	357.91321	323.74124	-832.44501	375.66232	345.14542	-806.84973	335.74890	340.06641	-720.83514	195.05595	312.47226	-755.52271	190.34399	240.48692	-648.10791	193.16620	268.81927	-799.34772	76.21481	349.85211	-842.52521	76.52525	300.87701	-819.71515	72.90355	258.82831	-653.93140	1036.43420	165.83009	-824.80682	991.91492	106.05303	-665.68091	620.65369	95.54606	-658.26843	560.34467	109.39184	-728.28741	614.30878	80.19173	-730.50909	552.82806	88.98196	-719.71191	482.94629	109.93871	-698.32410	503.35312	218.68874	-616.26837	305.46628	99.58154	-616.01617	258.11490	103.94749	-677.99249	295.90811	96.04945	-668.12762	253.79800	100.00340	-645.84753	101.74543	128.75993	-653.99036	104.35867	210.54128	-571.83801	67.60354	159.65312	-774.42993	49.82271	213.27499	-804.55304	64.79308	175.48058	-755.98499	39.09265	106.96410
1463	5.84800	-655.02460	1039.50854	278.48276	-832.36719	985.82184	310.70343	-857.66162	643.23035	355.56271	-889.13043	590.52588	345.85651	-926.44482	676.63629	360.80032	-948.55853	619.63025	350.19766	-928.20398	527.04816	337.74609	-946.93201	519.10486	227.63017	-791.00842	399.15204	327.60632	-774.19440	354.93524	324.18069	-843.18115	374.30597	345.47638	-818.52069	333.85715	340.42596	-735.03534	191.22130	313.23419	-770.56915	187.20641	240.90230	-663.00653	187.43411	269.00211	-817.10236	74.28455	350.79041	-860.17535	75.62656	301.73361	-837.45636	71.53650	259.64676	-658.91217	1036.33020	166.40913	-829.61005	991.31415	105.89954	-668.69867	620.86407	96.02384	-661.01398	560.55365	109.92749	-731.30048	614.11639	80.51734	-733.15454	552.61359	89.34756	-722.19196	482.78867	110.28983	-701.01807	503.36435	219.05493	-617.71008	305.85699	99.95508	-617.53754	258.39590	104.33418	-680.38470	296.43405	96.65384	-669.06940	253.91820	100.34599	-646.11261	101.99284	128.98232	-652.33270	104.71689	210.11479	-571.93933	67.74700	159.77753	-774.55048	49.78159	213.30655	-804.65558	64.73215	175.50877	-756.02765	39.10424	106.99404
1464	5.85200	-660.39001	1039.47290	279.04221	-837.73755	985.97614	310.32623	-864.67249	643.73370	356.05820	-896.46796	591.25677	346.16071	-933.35120	677.66656	360.79480	-955.68561	620.74103	350.12277	-935.65057	527.79999	337.96149	-954.20203	520.04919	227.70061	-801.00623	396.16940	327.77914	-785.31970	351.96964	324.62253	-853.95758	372.87866	345.86255	-830.14124	331.84985	340.80276	-749.88879	187.37607	313.78494	-785.78864	184.08395	241.31627	-677.95728	181.71204	269.22858	-834.58417	72.62643	351.58231	-877.87744	74.90153	302.64020	-855.30621	70.19672	260.65036	-663.91589	1036.16101	167.02220	-833.72351	990.43683	105.98028	-671.70953	621.00739	96.56046	-663.47345	560.81677	110.43021	-734.16846	613.93793	80.82111	-735.85577	552.44281	89.62725	-724.55109	482.62979	110.72281	-703.72101	503.35049	219.47565	-618.97375	306.22604	100.29320	-618.22302	258.87808	104.62685	-680.74896	296.11166	96.77558	-670.34460	254.06535	100.65896	-646.44537	102.19324	129.21924	-652.57190	104.77960	210.31403	-571.94025	67.96710	159.86542	-773.15826	49.01729	213.23225	-804.77374	64.65745	175.54251	-756.03564	39.11867	107.01978
1465	5.85600	-665.71820	1039.48047	279.61066	-843.48260	986.21136	309.93259	-871.37701	644.15131	356.50940	-903.63947	592.00580	346.47623	-940.07605	678.59772	360.69995	-962.59155	621.76880	349.97946	-943.02148	528.36932	338.08270	-961.19086	520.81592	227.96333	-811.10229	393.39200	328.36292	-796.50476	348.80365	325.13379	-864.54608	371.42496	346.30670	-841.81836	329.80136	341.22247	-764.83563	183.55057	314.25049	-800.99359	180.98679	241.82629	-693.12012	176.01549	269.65176	-852.33307	71.00847	352.42078	-895.75311	74.18108	303.65060	-873.15942	68.75531	261.37601	-668.95996	1036.00415	167.51160	-839.32849	990.23438	105.61851	-674.11389	621.36646	96.88432	-666.26099	561.00903	110.94617	-737.10120	613.76392	81.11203	-738.41412	552.23621	89.89558	-726.97693	482.50433	110.96983	-706.42651	503.27231	219.89670	-620.51208	306.60300	100.66296	-619.28546	259.31342	104.98967	-682.05536	296.12988	97.12849	-671.19244	254.14745	100.93501	-646.75287	102.41008	129.45927	-652.82697	104.82800	210.52339	-572.02740	68.16340	159.96100	-774.14539	49.51621	213.18628	-804.41022	64.59930	175.00987	-755.85034	38.73202	107.33941
